<?xml version="1.0" encoding="UTF-8" standalone="no"?><!DOCTYPE svg PUBLIC "-//W3C//DTD SVG 1.1//EN" "http://www.w3.org/Graphics/SVG/1.1/DTD/svg11.dtd"><svg width="100%" height="100%" viewBox="0 0 397 444" version="1.1" xmlns="http://www.w3.org/2000/svg" xmlns:xlink="http://www.w3.org/1999/xlink" xml:space="preserve" xmlns:serif="http://www.serif.com/" style="fill-rule:evenodd;clip-rule:evenodd;stroke-linecap:round;stroke-linejoin:round;stroke-miterlimit:1.5;"><path d="M314.63,317.008l0,-156.77c-0.02,-79.338 -64.361,-143.647 -143.705,-143.62c-79.345,0.026 -143.647,64.36 -143.628,143.705c0.02,79.344 64.361,143.647 143.705,143.627c27.801,-0.006 55,-8.08 78.307,-23.241l0,9.653l65.321,-0.582" style="fill:#b3b3b3;fill-rule:nonzero;"/><path d="M308.098,127.578l32.66,-32.66l45.725,45.725l-78.385,78.384l0,-91.449Z" style="fill:#808080;fill-rule:nonzero;"/><path d="M223.181,160.238l0,133.908c9.145,-3.567 17.898,-8.061 26.129,-13.411l0,-120.497l-26.129,0Z" style="fill:#808080;fill-rule:nonzero;"/><path d="M249.31,160.238c0,43.262 -35.123,78.386 -78.385,78.386c-43.262,0 -78.386,-35.124 -78.386,-78.386c0,-43.262 35.124,-78.385 78.386,-78.385c43.262,0 78.385,35.123 78.385,78.385Z" style="fill:#ffa753;"/><path d="M223.181,160.238c0,28.842 -23.415,52.257 -52.256,52.257c-28.842,0 -52.257,-23.415 -52.257,-52.257c0,-28.841 23.415,-52.256 52.257,-52.256c28.841,0 52.256,23.415 52.256,52.256Z" style="fill:#e6e6e6;"/><path d="M183.989,160.238c0,7.211 -5.854,13.065 -13.064,13.065c-7.211,0 -13.065,-5.854 -13.065,-13.065c0,-7.21 5.854,-13.064 13.065,-13.064c7.21,0 13.064,5.854 13.064,13.064Z" style="fill:#808080;"/><path d="M327.694,290.767l0,-39.193l-91.449,0l0,39.193l91.449,0Z" style="fill:#808080;"/><path d="M321.162,243.562l0,-28.363l69.939,-69.939c2.547,-2.547 2.547,-6.688 0,-9.236l-45.725,-45.724c-2.554,-2.548 -6.688,-2.548 -9.236,0l-22.647,22.647c-26.128,-78.751 -111.149,-121.406 -189.907,-95.278c-78.757,26.128 -121.412,111.157 -95.283,189.907c26.129,78.75 111.157,121.412 189.907,95.277c8.491,-2.816 16.709,-6.389 24.567,-10.667l0,-48.625l-6.532,0c-3.606,0 -6.532,2.926 -6.532,6.532l0,39.192c0,3.605 2.926,6.532 6.532,6.532l91.449,0c3.605,0.001 6.532,-2.919 6.532,-6.531l0,-39.192c0,-3.605 -2.926,-6.532 -6.532,-6.532l-6.532,0m19.596,-139.408l36.488,36.488l-10.36,10.36l-28.043,-28.042l-9.236,9.236l28.042,28.042l-36.488,36.488l0,-36.488c-0.006,-11.046 -1.234,-22.052 -3.658,-32.83l23.255,-23.254Zm-32.66,139.407l-52.257,0l0,-83.323c0.151,-47.063 -37.879,-85.341 -84.943,-85.491c-47.063,-0.151 -85.341,37.879 -85.491,84.942c-0.151,47.064 37.879,85.342 84.942,85.492c29.401,0.092 56.777,-14.978 72.428,-39.871l0,71.709c-64.517,39.656 -148.971,19.504 -188.633,-45.019c-39.663,-64.524 -19.505,-148.971 45.019,-188.633c64.523,-39.663 148.97,-19.505 188.633,45.018c13.286,21.609 20.315,46.483 20.302,71.853l0,83.323m-137.173,-11.47c-20.694,-0.013 -40.369,-8.968 -53.968,-24.567l10.614,-7.714c13.92,15.337 34.908,22.19 55.196,18.015l4.037,12.412c-5.207,1.214 -10.53,1.835 -15.879,1.854Zm0,-26.128c-12.34,0 -24.149,-5.004 -32.732,-13.868l21.627,-15.722c3.116,2.136 6.787,3.324 10.569,3.409l8.277,25.475c-2.556,0.458 -5.142,0.693 -7.741,0.706Zm0,-91.449c2.599,0.013 5.199,0.255 7.759,0.712l-8.276,25.475c-3.782,0.078 -7.466,1.267 -10.588,3.403l-21.648,-15.723c8.59,-8.864 20.407,-13.867 32.753,-13.867Zm0,39.192c3.605,0 6.532,2.926 6.532,6.532c0,3.606 -2.926,6.533 -6.532,6.533c-3.607,0 -6.533,-2.927 -6.533,-6.533c0,-3.605 2.926,-6.532 6.533,-6.532Zm18.394,0c-1.274,-3.547 -3.541,-6.65 -6.532,-8.936l8.282,-25.474c13.502,6.649 22.869,19.517 25.058,34.41l-26.808,0Zm-37.103,1.013c-1.182,3.585 -1.182,7.453 0,11.039l-21.719,15.782c-7.061,-13.326 -7.061,-29.277 0,-42.602l21.719,15.781Zm30.603,20.988c2.992,-2.286 5.259,-5.389 6.532,-8.936l26.782,0c-2.169,14.892 -11.529,27.774 -25.024,34.436l-8.29,-25.5Zm46.509,-22.001c-2.339,-20.569 -15.305,-38.402 -34.156,-46.959l4.069,-12.522c24.208,10.419 40.78,33.242 43.203,59.481l-13.116,0Zm-42.524,-63.491l-4.037,12.411c-20.289,-4.174 -41.276,2.678 -55.196,18.015l-10.614,-7.714c17.283,-19.916 44.156,-28.656 69.847,-22.712Zm-66.941,41.001c-10.301,17.976 -10.301,40.068 0,58.044l-10.588,7.695c-13.607,-22.588 -13.607,-50.846 0,-73.434l10.588,7.695Zm75.309,82.514c18.851,-8.557 31.817,-26.39 34.156,-46.959l13.116,0c-2.423,26.239 -18.995,49.062 -43.203,59.481l-4.069,-12.522Zm47.605,69.024l0,-26.128l78.385,0l0,26.128l-78.385,0Z" style="fill:#004559;fill-rule:nonzero;"/><path d="M314.593,290.454c0,79.294 -64.376,143.67 -143.669,143.67c-79.294,0 -143.67,-64.376 -143.67,-143.67m223.094,0c0,43.836 -35.589,79.425 -79.424,79.425c-43.836,0 -79.425,-35.589 -79.425,-79.425" style="fill:#b3b3b3;stroke:#004559;stroke-width:13.5px;"/><rect x="14.25" y="250.464" width="91.257" height="39.25" style="fill:#808080;stroke:#004559;stroke-width:13.5px;"/><path d="M177.456,277.816l0,-13.065l-13.064,0l0,13.065l13.064,0Z" style="fill:#004559;"/><path d="M177.456,55.725l0,-13.064l-13.064,0l0,13.064l13.064,0Z" style="fill:#004559;"/><path d="M295.033,275.592l0,-13.064l-13.064,0l0,13.064l13.064,0Z" style="fill:#004559;"/><path d="M295.033,234.917l0,-58.789l-13.064,0l0,58.789l13.064,0Z" style="fill:#004559;"/><path d="M66.411,166.771l0,-13.065l-13.064,0l0,13.065l13.064,0Z" style="fill:#004559;"/></svg>